<svg width="2030" height="320" viewBox="0 0 2030 320" fill="none" xmlns="http://www.w3.org/2000/svg">
<g clip-path="url(#clip0_10_106)">
<rect width="320" height="320" rx="8" fill="#5675A3"/>
<path fill-rule="evenodd" clip-rule="evenodd" d="M40.5 19.5H79.5V-2H80.5V19.5H119.5V-2H120.5V19.5H159.5V-2H160.5V19.5H199.5V-2H200.5V19.5H239.5V-2H240.5V19.5H279.5V-2H280.5V19.5H322V20.5H280.5V59.5H322V60.5H280.5V99.5H322V100.5H280.5V139.5H322V140.5H280.5V179.5H322V180.5H280.5V219.5H322V220.5H280.5V259.5H322V260.5H280.5V299.5H322V300.5H280.5V322H279.5V300.5H240.5V322H239.5V300.5H200.5V322H199.5V300.5H160.5V322H159.5V300.5H120.5V322H119.5V300.5H80.5V322H79.5V300.5H40.5V322H39.5V300.5H-2V299.5H39.5V260.5H-2V259.5H39.5V220.5H-2V219.5H39.5V180.5H-2V179.5H39.5V140.5H-2V139.5H39.5V100.5H-2V99.5H39.5V60.5H-2V59.5H39.5V20.5H-2V19.5H39.5V-2H40.5V19.5ZM40.5 299.5H79.5V260.5H40.5V299.5ZM80.5 299.5H119.5V260.5H80.5V299.5ZM120.5 299.5H159.5V260.5H120.5V299.5ZM160.5 299.5H199.5V260.5H160.5V299.5ZM200.5 299.5H239.5V260.5H200.5V299.5ZM240.5 299.5H279.5V260.5H240.5V299.5ZM40.5 259.5H79.5V220.5H40.5V259.5ZM80.5 259.5H119.5V220.5H80.5V259.5ZM120.5 259.5H159.5V220.5H120.5V259.5ZM160.5 259.5H199.5V220.5H160.5V259.5ZM200.5 259.5H239.5V220.5H200.5V259.5ZM240.5 259.5H279.5V220.5H240.5V259.5ZM40.5 219.5H79.5V180.5H40.5V219.5ZM80.5 219.5H119.5V180.5H80.5V219.5ZM120.5 219.5H159.5V180.5H120.5V219.5ZM160.5 219.5H199.5V180.5H160.5V219.5ZM200.5 219.5H239.5V180.5H200.5V219.5ZM240.5 219.5H279.5V180.5H240.5V219.5ZM40.5 179.5H79.5V140.5H40.5V179.5ZM80.5 179.5H119.5V140.5H80.5V179.5ZM120.5 179.5H159.5V140.5H120.5V179.5ZM160.5 179.5H199.5V140.5H160.5V179.5ZM200.5 179.5H239.5V140.5H200.5V179.5ZM240.5 179.5H279.5V140.5H240.5V179.5ZM40.5 139.5H79.5V100.5H40.5V139.5ZM80.5 139.5H119.5V100.5H80.5V139.5ZM120.5 139.5H159.5V100.5H120.5V139.5ZM160.5 139.5H199.5V100.5H160.5V139.5ZM200.5 139.5H239.5V100.5H200.5V139.5ZM240.5 139.5H279.5V100.5H240.5V139.5ZM40.5 99.5H79.5V60.5H40.5V99.5ZM80.5 99.5H119.5V60.5H80.5V99.5ZM120.5 99.5H159.5V60.5H120.5V99.5ZM160.5 99.5H199.5V60.5H160.5V99.5ZM200.5 99.5H239.5V60.5H200.5V99.5ZM240.5 99.5H279.5V60.5H240.5V99.5ZM40.5 59.5H79.5V20.5H40.5V59.5ZM80.5 59.5H119.5V20.5H80.5V59.5ZM120.5 59.5H159.5V20.5H120.5V59.5ZM160.5 59.5H199.5V20.5H160.5V59.5ZM200.5 59.5H239.5V20.5H200.5V59.5ZM240.5 59.5H279.5V20.5H240.5V59.5Z" fill="white" fill-opacity="0.2"/>
<path d="M245 185H205V215H245V265H155V185H125V265H75V55H245V185ZM85 175H91V185H85V255H115V185H109V175H171V185H165V255H235V225H195V185H189V175H235V65H85V175ZM205 145H115V95H205V145ZM125 135H195V105H125V135Z" fill="white"/>
</g>
<path d="M395 246.471V70H469.28C480.228 70 489.829 71.9328 498.083 75.7983C506.504 79.4958 512.989 84.874 517.537 91.9328C522.253 98.9916 524.611 107.395 524.611 117.143V119.916C524.611 131.008 521.916 139.916 516.526 146.639C511.305 153.193 504.904 157.815 497.325 160.504V164.538C503.725 164.874 508.863 167.059 512.737 171.092C516.611 174.958 518.548 180.588 518.548 187.983V246.471H491.008V191.765C491.008 187.227 489.829 183.613 487.471 180.924C485.113 178.235 481.323 176.891 476.102 176.891H422.287V246.471H395ZM422.287 152.185H466.248C476.018 152.185 483.597 149.748 488.987 144.874C494.377 139.832 497.072 133.025 497.072 124.454V122.437C497.072 113.866 494.377 107.143 488.987 102.269C483.766 97.2269 476.186 94.7059 466.248 94.7059H422.287V152.185Z" fill="white"/>
<path d="M598.092 248.739C588.66 248.739 580.238 246.639 572.827 242.437C565.415 238.235 559.604 232.269 555.394 224.538C551.183 216.807 549.077 207.563 549.077 196.807V122.185H575.101V195.042C575.101 205.798 577.795 213.782 583.185 218.992C588.575 224.034 596.071 226.555 605.672 226.555C616.283 226.555 624.789 223.025 631.19 215.966C637.759 208.739 641.043 198.403 641.043 184.958V122.185H667.066V246.471H641.548V227.815H637.506C635.148 232.857 630.937 237.647 624.873 242.185C618.81 246.555 609.882 248.739 598.092 248.739Z" fill="white"/>
<path d="M751.518 250C735.685 250 722.547 246.471 712.104 239.412C701.661 232.353 695.26 221.681 692.902 207.395L717.157 201.597C718.504 208.487 720.778 213.95 723.979 217.983C727.179 222.017 731.137 224.874 735.853 226.555C740.738 228.235 745.959 229.076 751.518 229.076C759.771 229.076 766.087 227.479 770.467 224.286C775.015 221.092 777.288 216.975 777.288 211.933C777.288 206.891 775.183 203.193 770.972 200.84C766.761 198.487 760.529 196.555 752.276 195.042L743.686 193.529C735.264 192.017 727.6 189.832 720.694 186.975C713.788 184.118 708.314 180.168 704.272 175.126C700.229 170.084 698.208 163.613 698.208 155.714C698.208 143.95 702.587 134.874 711.346 128.487C720.105 121.933 731.727 118.655 746.212 118.655C760.192 118.655 771.646 121.849 780.573 128.235C789.668 134.454 795.564 142.941 798.259 153.697L774.004 160.504C772.488 152.941 769.288 147.647 764.403 144.622C759.519 141.429 753.455 139.832 746.212 139.832C739.138 139.832 733.579 141.176 729.537 143.866C725.495 146.387 723.473 150 723.473 154.706C723.473 159.748 725.41 163.445 729.284 165.798C733.327 168.151 738.717 169.916 745.454 171.092L754.297 172.605C763.224 174.118 771.393 176.218 778.804 178.908C786.216 181.597 792.027 185.462 796.237 190.504C800.617 195.546 802.806 202.269 802.806 210.672C802.806 223.109 798.175 232.773 788.911 239.664C779.647 246.555 767.182 250 751.518 250Z" fill="white"/>
<path d="M872.197 246.471C864.618 246.471 858.554 244.202 854.006 239.664C849.627 235.126 847.437 229.076 847.437 221.513V144.118H813.076V122.185H847.437V81.0924H873.461V122.185H910.601V144.118H873.461V216.975C873.461 222.017 875.819 224.538 880.535 224.538H906.558V246.471H872.197Z" fill="white"/>
<path d="M988.138 246.471V222.269H1011.89V94.2017H988.138V70H1077.83C1088.44 70 1097.71 71.8487 1105.62 75.5462C1113.54 79.0756 1119.69 84.2017 1124.07 90.9244C1128.61 97.479 1130.89 105.294 1130.89 114.37V116.891C1130.89 124.958 1129.37 131.597 1126.34 136.807C1123.31 142.017 1119.6 146.05 1115.22 148.908C1111.01 151.765 1106.97 153.782 1103.1 154.958V158.992C1106.97 160 1111.1 162.017 1115.48 165.042C1120.02 167.899 1123.81 171.933 1126.84 177.143C1130.04 182.353 1131.64 189.16 1131.64 197.563V200.084C1131.64 209.832 1129.37 218.151 1124.82 225.042C1120.28 231.933 1113.96 237.227 1105.87 240.924C1097.96 244.622 1088.78 246.471 1078.34 246.471H988.138ZM1039.43 221.765H1075.05C1084.15 221.765 1091.3 219.58 1096.53 215.21C1101.75 210.84 1104.36 204.79 1104.36 197.059V194.79C1104.36 187.059 1101.75 181.008 1096.53 176.639C1091.47 172.269 1084.31 170.084 1075.05 170.084H1039.43V221.765ZM1039.43 145.126H1075.05C1083.64 145.126 1090.55 143.025 1095.77 138.824C1100.99 134.454 1103.6 128.571 1103.6 121.176V118.655C1103.6 111.261 1100.99 105.462 1095.77 101.261C1090.71 96.8908 1083.81 94.7059 1075.05 94.7059H1039.43V145.126Z" fill="white"/>
<path d="M1196.6 250C1187.67 250 1179.67 248.487 1172.6 245.462C1165.69 242.437 1160.13 237.983 1155.92 232.101C1151.88 226.218 1149.86 219.076 1149.86 210.672C1149.86 202.101 1151.88 195.042 1155.92 189.496C1160.13 183.782 1165.77 179.496 1172.85 176.639C1180.09 173.782 1188.26 172.353 1197.36 172.353H1235.25V164.286C1235.25 157.059 1233.06 151.261 1228.69 146.891C1224.31 142.521 1217.57 140.336 1208.47 140.336C1199.55 140.336 1192.72 142.437 1188.01 146.639C1183.29 150.84 1180.18 156.303 1178.66 163.025L1154.41 155.21C1156.43 148.487 1159.63 142.437 1164.01 137.059C1168.55 131.513 1174.53 127.059 1181.94 123.697C1189.36 120.336 1198.28 118.655 1208.73 118.655C1224.9 118.655 1237.61 122.773 1246.88 131.008C1256.14 139.244 1260.77 150.924 1260.77 166.05V217.227C1260.77 222.269 1263.13 224.79 1267.85 224.79H1278.46V246.471H1259C1253.11 246.471 1248.31 244.958 1244.6 241.933C1240.9 238.908 1239.04 234.79 1239.04 229.58V228.824H1235.25C1233.91 231.345 1231.89 234.286 1229.19 237.647C1226.5 241.008 1222.54 243.95 1217.32 246.471C1212.09 248.824 1205.19 250 1196.6 250ZM1200.39 228.571C1210.83 228.571 1219.25 225.63 1225.65 219.748C1232.05 213.697 1235.25 205.462 1235.25 195.042V192.521H1198.87C1191.97 192.521 1186.41 194.034 1182.2 197.059C1177.99 199.916 1175.88 204.202 1175.88 209.916C1175.88 215.63 1178.07 220.168 1182.45 223.529C1186.83 226.891 1192.81 228.571 1200.39 228.571Z" fill="white"/>
<path d="M1348.76 250C1332.92 250 1319.79 246.471 1309.34 239.412C1298.9 232.353 1292.5 221.681 1290.14 207.395L1314.4 201.597C1315.74 208.487 1318.02 213.95 1321.22 217.983C1324.42 222.017 1328.38 224.874 1333.09 226.555C1337.98 228.235 1343.2 229.076 1348.76 229.076C1357.01 229.076 1363.33 227.479 1367.71 224.286C1372.25 221.092 1374.53 216.975 1374.53 211.933C1374.53 206.891 1372.42 203.193 1368.21 200.84C1364 198.487 1357.77 196.555 1349.52 195.042L1340.92 193.529C1332.5 192.017 1324.84 189.832 1317.93 186.975C1311.03 184.118 1305.55 180.168 1301.51 175.126C1297.47 170.084 1295.45 163.613 1295.45 155.714C1295.45 143.95 1299.83 134.874 1308.59 128.487C1317.34 121.933 1328.97 118.655 1343.45 118.655C1357.43 118.655 1368.89 121.849 1377.81 128.235C1386.91 134.454 1392.8 142.941 1395.5 153.697L1371.24 160.504C1369.73 152.941 1366.53 147.647 1361.64 144.622C1356.76 141.429 1350.69 139.832 1343.45 139.832C1336.38 139.832 1330.82 141.176 1326.78 143.866C1322.73 146.387 1320.71 150 1320.71 154.706C1320.71 159.748 1322.65 163.445 1326.52 165.798C1330.57 168.151 1335.96 169.916 1342.69 171.092L1351.54 172.605C1360.46 174.118 1368.63 176.218 1376.04 178.908C1383.45 181.597 1389.27 185.462 1393.48 190.504C1397.86 195.546 1400.05 202.269 1400.05 210.672C1400.05 223.109 1395.41 232.773 1386.15 239.664C1376.89 246.555 1364.42 250 1348.76 250Z" fill="white"/>
<path d="M1482.51 250C1469.88 250 1458.84 247.395 1449.41 242.185C1439.98 236.807 1432.57 229.328 1427.18 219.748C1421.96 210 1419.35 198.739 1419.35 185.966V182.941C1419.35 170 1421.96 158.739 1427.18 149.16C1432.4 139.412 1439.64 131.933 1448.91 126.723C1458.34 121.345 1469.2 118.655 1481.5 118.655C1493.46 118.655 1503.9 121.345 1512.83 126.723C1521.92 131.933 1529 139.244 1534.05 148.655C1539.1 158.067 1541.63 169.076 1541.63 181.681V191.513H1445.87C1446.21 202.437 1449.83 211.176 1456.74 217.731C1463.81 224.118 1472.57 227.311 1483.01 227.311C1492.78 227.311 1500.11 225.126 1505 220.756C1510.05 216.387 1513.92 211.345 1516.62 205.63L1538.09 216.723C1535.74 221.429 1532.28 226.387 1527.73 231.597C1523.36 236.807 1517.54 241.176 1510.3 244.706C1503.06 248.235 1493.79 250 1482.51 250ZM1446.13 171.597H1515.1C1514.43 162.185 1511.06 154.874 1505 149.664C1498.93 144.286 1491.02 141.597 1481.25 141.597C1471.48 141.597 1463.48 144.286 1457.24 149.664C1451.18 154.874 1447.47 162.185 1446.13 171.597Z" fill="white"/>
<path d="M1626.49 246.471V70H1653.78V221.765H1738.92V246.471H1626.49Z" fill="white"/>
<path d="M1798.28 250C1789.35 250 1781.35 248.487 1774.28 245.462C1767.37 242.437 1761.81 237.983 1757.6 232.101C1753.56 226.218 1751.54 219.076 1751.54 210.672C1751.54 202.101 1753.56 195.042 1757.6 189.496C1761.81 183.782 1767.46 179.496 1774.53 176.639C1781.77 173.782 1789.94 172.353 1799.04 172.353H1836.94V164.286C1836.94 157.059 1834.75 151.261 1830.37 146.891C1825.99 142.521 1819.25 140.336 1810.15 140.336C1801.23 140.336 1794.41 142.437 1789.69 146.639C1784.97 150.84 1781.86 156.303 1780.34 163.025L1756.09 155.21C1758.11 148.487 1761.31 142.437 1765.69 137.059C1770.23 131.513 1776.21 127.059 1783.63 123.697C1791.04 120.336 1799.96 118.655 1810.41 118.655C1826.58 118.655 1839.29 122.773 1848.56 131.008C1857.82 139.244 1862.45 150.924 1862.45 166.05V217.227C1862.45 222.269 1864.81 224.79 1869.53 224.79H1880.14V246.471H1860.68C1854.79 246.471 1849.99 244.958 1846.28 241.933C1842.58 238.908 1840.72 234.79 1840.72 229.58V228.824H1836.94C1835.59 231.345 1833.57 234.286 1830.87 237.647C1828.18 241.008 1824.22 243.95 1819 246.471C1813.78 248.824 1806.87 250 1798.28 250ZM1802.07 228.571C1812.51 228.571 1820.93 225.63 1827.33 219.748C1833.73 213.697 1836.94 205.462 1836.94 195.042V192.521H1800.55C1793.65 192.521 1788.09 194.034 1783.88 197.059C1779.67 199.916 1777.56 204.202 1777.56 209.916C1777.56 215.63 1779.75 220.168 1784.13 223.529C1788.51 226.891 1794.49 228.571 1802.07 228.571Z" fill="white"/>
<path d="M1972.39 250C1960.27 250 1950.92 247.815 1944.35 243.445C1937.95 239.076 1933.15 234.202 1929.95 228.824H1925.91V246.471H1900.39V70H1926.41V139.076H1930.45C1932.48 135.714 1935.17 132.521 1938.54 129.496C1941.91 126.303 1946.37 123.697 1951.93 121.681C1957.49 119.664 1964.31 118.655 1972.39 118.655C1982.84 118.655 1992.44 121.176 2001.2 126.218C2009.96 131.261 2016.95 138.571 2022.17 148.151C2027.39 157.731 2030 169.16 2030 182.437V186.218C2030 199.664 2027.3 211.176 2021.92 220.756C2016.69 230.168 2009.7 237.395 2000.94 242.437C1992.35 247.479 1982.84 250 1972.39 250ZM1964.82 227.311C1976.1 227.311 1985.36 223.697 1992.61 216.471C2000.02 209.244 2003.72 198.908 2003.72 185.462V183.193C2003.72 169.916 2000.1 159.664 1992.86 152.437C1985.62 145.21 1976.27 141.597 1964.82 141.597C1953.7 141.597 1944.43 145.21 1937.02 152.437C1929.78 159.664 1926.16 169.916 1926.16 183.193V185.462C1926.16 198.908 1929.78 209.244 1937.02 216.471C1944.43 223.697 1953.7 227.311 1964.82 227.311Z" fill="white"/>
<defs>
<clipPath id="clip0_10_106">
<rect width="320" height="320" rx="8" fill="white"/>
</clipPath>
</defs>
</svg>
